# xmcd
#
# Track frame offsets: 
#        150
#        24183
#        41901
#        58776
#        75050
#        97569
#        115996
#        136354
#        157427
#        174218
#        192466
#        197175
#        213867
#
# Disc length: 3062 seconds
#
# Revision: 0
# Processed by: cddbd v1.5.2PL0 Copyright (c) Steve Scherf et al.
# Submitted via: ExactAudioCopy v1.0b3
#
DISCID=a70bf40d
DTITLE=Reckless kelly - Long Night Moon
DYEAR=2013
DGENRE=Country
TTITLE0=Long Night Moon
TTITLE1=Real Cool Hand
TTITLE2=Irish Goodbye
TTITLE3=Every Step of the Way
TTITLE4=Be My Friend (In Real Life)
TTITLE5=The Girl I Knew
TTITLE6=I Can't Stand It
TTITLE7=The Last Goodbye
TTITLE8=Didn't Mean to Break Your Heart
TTITLE9=The Only Home I've Ever Known
TTITLE10=Long Night Moon (Reprise)
TTITLE11=Idaho
TTITLE12=Any Direction From Her
EXTD=
EXTT0=
EXTT1=
EXTT2=
EXTT3=
EXTT4=
EXTT5=
EXTT6=
EXTT7=
EXTT8=
EXTT9=
EXTT10=
EXTT11=
EXTT12=
PLAYORDER=
